<?xml version="1.0" encoding="UTF-8" standalone="no"?>
<svg
   xmlns:dc="http://purl.org/dc/elements/1.1/"
   xmlns:cc="http://creativecommons.org/ns#"
   xmlns:rdf="http://www.w3.org/1999/02/22-rdf-syntax-ns#"
   xmlns:svg="http://www.w3.org/2000/svg"
   xmlns="http://www.w3.org/2000/svg"
   viewBox="0 0 200 200"
   height="200"
   width="200"
   xml:space="preserve"
   id="svg2"
   version="1.1"><metadata
     id="metadata8"><rdf:RDF><cc:Work
         rdf:about=""><dc:format>image/svg+xml</dc:format><dc:type
           rdf:resource="http://purl.org/dc/dcmitype/StillImage" /></cc:Work></rdf:RDF></metadata><defs
     id="defs6"><clipPath
       id="clipPath18"
       clipPathUnits="userSpaceOnUse"><path
         id="path16"
         d="M 0,150 H 150 V 0 H 0 Z" /></clipPath></defs><g
     transform="matrix(1.3333333,0,0,-1.3333333,0,200)"
     id="g10"><g
       id="g12"><g
         clip-path="url(#clipPath18)"
         id="g14"><g
           transform="translate(123.9703,81.6975)"
           id="g20"><path
             id="path22"
             style="fill:#51ffbd;fill-opacity:1;fill-rule:nonzero;stroke:none"
             d="m 0,0 c -2.231,-2.654 -5.519,-4.815 -9.184,-6.471 -3.672,-1.656 -7.692,-2.477 -11.717,-2.477 -4.026,0 -7.96,0.821 -11.625,2.477 -3.665,1.656 -6.674,3.817 -8.974,6.471 -2.3,2.667 -3.47,5.359 -3.47,8.089 v 38.214 h 49 V 8.089 C 4.03,5.359 2.231,2.667 0,0 m 22.975,65.093 c -2.521,2.518 -4.931,2.21 -8.665,2.21 h -11.57 -109.929 -3.195 c -3.741,0 -6.869,0.419 -9.385,-1.884 -2.515,-2.3 -3.772,-4.465 -3.772,-8.061 0,-3.738 1.219,-6.03 3.665,-8.334 2.446,-2.3 5.612,-2.721 9.492,-2.721 h 3.156 0.039 35.219 V -67.415 c 0,-3.741 0.62,-6.869 3.208,-9.384 2.59,-2.516 5.558,-3.773 9.587,-3.773 4.025,0 7.39,1.257 10.123,3.773 2.73,2.515 4.082,5.643 4.082,9.384 v 38.638 c 0,-0.008 -0.125,-0.019 -0.109,-0.027 7.476,-4.019 15.457,-6.041 24.083,-6.041 8.771,0 16.821,2.022 24.234,6.041 7.406,4.032 12.565,9.353 16.951,15.963 4.385,6.623 5.841,13.599 5.841,20.93 v 49.19 c 0,3.741 -0.54,5.302 -3.055,7.814" /></g></g></g></g></svg>